<svg width="18" height="18" viewBox="0 0 18 18" fill="none" xmlns="http://www.w3.org/2000/svg">
<path d="M13.8 1.38C12.39 0.51 10.77 0 9 0V1.38H13.8Z" fill="#ED4C5C"/>
<path d="M9 2.76013H15.48C14.97 2.25013 14.4 1.77013 13.8 1.38013H9V2.76013Z" fill="white"/>
<path d="M9 4.14001H16.59C16.26 3.63001 15.9 3.18001 15.51 2.76001H9V4.14001Z" fill="#ED4C5C"/>
<path d="M9 5.52014H17.31C17.1 5.04014 16.86 4.56014 16.59 4.14014H9V5.52014Z" fill="white"/>
<path d="M9 6.90002H17.76C17.64 6.42002 17.49 5.97002 17.31 5.52002H9V6.90002Z" fill="#ED4C5C"/>
<path d="M9 8.30993H17.97C17.94 7.82993 17.85 7.37993 17.76 6.92993H9V8.30993Z" fill="white"/>
<path d="M17.97 8.31006H9V9.00006H0C0 9.24006 -2.90573e-08 9.45006 0.03 9.69006H17.97C18 9.45006 18 9.24006 18 9.00006C18 8.76006 18 8.52006 17.97 8.31006Z" fill="#ED4C5C"/>
<path d="M0.239907 11.0699H17.7599C17.8799 10.6199 17.9399 10.1699 17.9699 9.68994H0.0299072C0.0599072 10.1399 0.119907 10.6199 0.239907 11.0699Z" fill="white"/>
<path d="M0.689929 12.4501H17.3099C17.4899 12.0001 17.6399 11.5501 17.7599 11.0701H0.239929C0.359929 11.5501 0.509929 12.0001 0.689929 12.4501Z" fill="#ED4C5C"/>
<path d="M1.41019 13.83H16.5902C16.8602 13.38 17.1002 12.93 17.3102 12.45H0.690186C0.900186 12.93 1.14019 13.38 1.41019 13.83Z" fill="white"/>
<path d="M2.48997 15.2101H15.51C15.9 14.7901 16.29 14.3101 16.59 13.8301H1.40997C1.70997 14.3401 2.09997 14.7901 2.48997 15.2101Z" fill="#ED4C5C"/>
<path d="M4.16993 16.59H13.8299C14.4599 16.2 14.9999 15.72 15.5099 15.21H2.48993C2.99993 15.75 3.56993 16.2 4.16993 16.59Z" fill="white"/>
<path d="M8.99998 18.0001C10.77 18.0001 12.42 17.4901 13.83 16.5901H4.16998C5.57998 17.4901 7.22998 18.0001 8.99998 18.0001Z" fill="#ED4C5C"/>
<path d="M4.2 1.38C3.57 1.77 3 2.25 2.49 2.76C2.07 3.18 1.71 3.66 1.41 4.14C1.14 4.59 0.87 5.04 0.69 5.52C0.51 5.97 0.36 6.42 0.24 6.9C0.12 7.35 0.06 7.8 0.03 8.28C-2.90573e-08 8.52 0 8.76 0 9H9V0C7.23 0 5.61 0.51 4.2 1.38Z" fill="#428BC1"/>
<path d="M6.89992 0.299805L7.04992 0.749805H7.49992L7.13992 1.0498L7.25992 1.4998L6.89992 1.2298L6.53992 1.4998L6.65992 1.0498L6.29992 0.749805H6.74992L6.89992 0.299805ZM8.09992 2.0998L8.24992 2.5498H8.69992L8.33992 2.8498L8.45992 3.2998L8.09992 3.0298L7.73992 3.2998L7.85992 2.8498L7.49992 2.5498H7.94992L8.09992 2.0998ZM5.69992 2.0998L5.84992 2.5498H6.29992L5.93992 2.8498L6.05992 3.2998L5.69992 3.0298L5.33992 3.2998L5.45992 2.8498L5.09992 2.5498H5.54992L5.69992 2.0998ZM6.89992 3.8998L7.04992 4.3498H7.49992L7.13992 4.6498L7.25992 5.0998L6.89992 4.8298L6.53992 5.0998L6.65992 4.6498L6.29992 4.3498H6.74992L6.89992 3.8998ZM4.49992 3.8998L4.64992 4.3498H5.09992L4.73992 4.6498L4.85992 5.0998L4.49992 4.8298L4.13992 5.0998L4.25992 4.6498L3.89992 4.3498H4.34992L4.49992 3.8998ZM2.09992 3.8998L2.24992 4.3498H2.69992L2.33992 4.6498L2.45992 5.0998L2.09992 4.8298L1.73992 5.0998L1.85992 4.6498L1.49992 4.3498H1.94992L2.09992 3.8998ZM8.09992 5.6998L8.24992 6.1498H8.69992L8.33992 6.4498L8.45992 6.8998L8.09992 6.6298L7.73992 6.8998L7.85992 6.4498L7.49992 6.1498H7.94992L8.09992 5.6998ZM5.69992 5.6998L5.84992 6.1498H6.29992L5.93992 6.4498L6.05992 6.8998L5.69992 6.6298L5.33992 6.8998L5.45992 6.4498L5.09992 6.1498H5.54992L5.69992 5.6998ZM3.29992 5.6998L3.44992 6.1498H3.89992L3.53992 6.4498L3.65992 6.8998L3.29992 6.6298L2.93992 6.8998L3.05992 6.4498L2.69992 6.1498H3.14992L3.29992 5.6998ZM6.89992 7.4998L7.04992 7.9498H7.49992L7.13992 8.2498L7.25992 8.6998L6.89992 8.4298L6.53992 8.6998L6.65992 8.2498L6.29992 7.9498H6.74992L6.89992 7.4998ZM4.49992 7.4998L4.64992 7.9498H5.09992L4.73992 8.2498L4.85992 8.6998L4.49992 8.4298L4.13992 8.6998L4.25992 8.2498L3.89992 7.9498H4.34992L4.49992 7.4998ZM2.09992 7.4998L2.24992 7.9498H2.69992L2.33992 8.2498L2.45992 8.6998L2.09992 8.4298L1.73992 8.6998L1.85992 8.2498L1.49992 7.9498H1.94992L2.09992 7.4998ZM2.93992 3.2998L3.29992 3.0298L3.65992 3.2998L3.50992 2.8498L3.86992 2.5498H3.41992L3.29992 2.0998L3.14992 2.5498H2.72992L3.08992 2.8198L2.93992 3.2998ZM0.539922 6.8998L0.899922 6.6298L1.25992 6.8998L1.10992 6.4498L1.46992 6.1498H1.04992L0.899922 5.6998L0.749922 6.1498H0.449922C0.449922 6.1798 0.419922 6.2098 0.419922 6.2398L0.659922 6.4198L0.539922 6.8998Z" fill="white"/>
</svg>
