<svg width="176" height="176" viewBox="0 0 176 176" fill="none" xmlns="http://www.w3.org/2000/svg">
<g filter="url(#filter0_d_8007_1887)">
<circle cx="87.6805" cy="58.4454" r="27.5" transform="rotate(-15 87.6805 58.4454)" fill="white"/>
</g>
<g clip-path="url(#clip0_8007_1887)">
<path d="M92.9195 54.9172H78.8125C77.2592 54.9172 76 56.1764 76 57.7297V63.4484C76 65.0017 77.2592 66.2609 78.8125 66.2609H79.5602V70.6761C79.5602 70.8953 79.8342 70.9946 79.9746 70.8261L83.7789 66.2609H90.107C91.6603 66.2609 92.9195 65.0017 92.9195 63.4484V54.9172Z" fill="#FFDD55"/>
<path d="M92.9195 54.9172V63.4484C92.9195 65.0019 91.6605 66.2609 90.107 66.2609H84.46V54.9172H92.9195Z" fill="#FFB555"/>
<path d="M89.6383 61.1984H79.3258C78.9375 61.1984 78.6227 61.5132 78.6227 61.9016C78.6227 62.2899 78.9375 62.6047 79.3258 62.6047H89.6383C90.0266 62.6047 90.3414 62.2899 90.3414 61.9016C90.3414 61.5132 90.0266 61.1984 89.6383 61.1984Z" fill="#FFB555"/>
<path d="M90.3414 61.9016C90.3414 62.2897 90.0264 62.6047 89.6383 62.6047H84.46V61.1984H89.6383C90.0264 61.1984 90.3414 61.5134 90.3414 61.9016Z" fill="#FF9000"/>
<path d="M79.3258 59.7922H87.2969C87.6852 59.7922 88 59.4774 88 59.0891C88 58.7007 87.6852 58.3859 87.2969 58.3859H79.3258C78.9375 58.3859 78.6227 58.7007 78.6227 59.0891C78.6227 59.4774 78.9375 59.7922 79.3258 59.7922Z" fill="#FFB555"/>
<path d="M88 59.0891C88 59.4772 87.685 59.7922 87.2969 59.7922H84.46V58.3859H87.2969C87.685 58.3859 88 58.7009 88 59.0891Z" fill="#FF9000"/>
<path d="M92.2188 59.7453C94.937 59.7453 97.1406 57.5417 97.1406 54.8234C97.1406 52.1051 94.937 49.9016 92.2188 49.9016C89.5005 49.9016 87.2969 52.1051 87.2969 54.8234C87.2969 57.5417 89.5005 59.7453 92.2188 59.7453Z" fill="#F25A3C"/>
<path d="M97.1406 54.8234C97.1406 57.5375 94.9328 59.7453 92.2188 59.7453V49.9016C94.9328 49.9016 97.1406 52.1094 97.1406 54.8234Z" fill="#E43539"/>
<path d="M92.0198 52.7525L91.3167 52.9869C90.9483 53.1097 90.7492 53.5079 90.872 53.8763C91.0358 54.3675 91.5343 54.3557 91.539 54.3572V56.2273C91.539 56.6156 91.8538 56.9305 92.2421 56.9305C92.6305 56.9305 92.9453 56.6156 92.9453 56.2273V53.4195C92.9453 52.9402 92.4751 52.6009 92.0198 52.7525Z" fill="#E9F3FB"/>
<path d="M92.9453 53.4195V56.2273C92.9453 56.6155 92.6303 56.9305 92.2422 56.9305C92.2342 56.9305 92.2262 56.9305 92.2188 56.93V52.7164C92.6022 52.7028 92.9453 53.0098 92.9453 53.4195Z" fill="#D6E9F8"/>
<path d="M92.2211 47.0891C91.8328 47.0891 91.518 47.4039 91.518 47.7922V48.5445C91.518 48.9328 91.8328 49.2476 92.2211 49.2476C92.6094 49.2476 92.9242 48.9328 92.9242 48.5445V47.7922C92.9242 47.4039 92.6094 47.0891 92.2211 47.0891Z" fill="#F25A3C"/>
<path d="M92.9242 47.7922V48.5445C92.9242 48.9326 92.6092 49.2476 92.2211 49.2476H92.2188V47.0891H92.2211C92.6092 47.0891 92.9242 47.4041 92.9242 47.7922Z" fill="#E43539"/>
<path d="M87.6788 49.3786C87.4042 49.104 86.959 49.104 86.6844 49.3786C86.4098 49.6531 86.4098 50.0983 86.6844 50.3729L87.2164 50.9049C87.4909 51.1795 87.9361 51.1795 88.2107 50.9049C88.4853 50.6303 88.4853 50.1851 88.2107 49.9105L87.6788 49.3786Z" fill="#F25A3C"/>
<path d="M97.2164 58.9294C96.9419 58.6548 96.4967 58.6548 96.2221 58.9294C95.9475 59.204 95.9475 59.6492 96.2221 59.9238L96.754 60.4558C97.0286 60.7304 97.4738 60.7304 97.7484 60.4558C98.023 60.1812 98.023 59.736 97.7484 59.4614L97.2164 58.9294ZM99.2969 54.2187H98.5445C98.1562 54.2187 97.8414 54.5335 97.8414 54.9219C97.8414 55.3102 98.1562 55.625 98.5445 55.625H99.2969C99.6852 55.625 100 55.3102 100 54.9219C100 54.5335 99.6852 54.2187 99.2969 54.2187ZM97.223 50.9115L97.755 50.3795C98.0296 50.1049 98.0296 49.6598 97.755 49.3852C97.4805 49.1106 97.0352 49.1106 96.7607 49.3852L96.2287 49.9172C95.9541 50.1918 95.9541 50.6369 96.2287 50.9115C96.5032 51.1861 96.9485 51.1862 97.223 50.9115Z" fill="#E43539"/>
</g>
<defs>
<filter id="filter0_d_8007_1887" x="0.17366" y="0.938599" width="175.014" height="175.014" filterUnits="userSpaceOnUse" color-interpolation-filters="sRGB">
<feFlood flood-opacity="0" result="BackgroundImageFix"/>
<feColorMatrix in="SourceAlpha" type="matrix" values="0 0 0 0 0 0 0 0 0 0 0 0 0 0 0 0 0 0 127 0" result="hardAlpha"/>
<feOffset dy="30"/>
<feGaussianBlur stdDeviation="30"/>
<feComposite in2="hardAlpha" operator="out"/>
<feColorMatrix type="matrix" values="0 0 0 0 0.344915 0 0 0 0 0.309028 0 0 0 0 0.432639 0 0 0 0.15 0"/>
<feBlend mode="normal" in2="BackgroundImageFix" result="effect1_dropShadow_8007_1887"/>
<feBlend mode="normal" in="SourceGraphic" in2="effect1_dropShadow_8007_1887" result="shape"/>
</filter>
<clipPath id="clip0_8007_1887">
<rect width="24" height="24" fill="white" transform="translate(76 47)"/>
</clipPath>
</defs>
</svg>
