<svg width="198" height="198" viewBox="0 0 198 198" fill="none" xmlns="http://www.w3.org/2000/svg">
<g filter="url(#filter0_d_8007_1868)">
<circle cx="99" cy="69" r="39" fill="white"/>
</g>
<g clip-path="url(#clip0_8007_1868)">
<path d="M100.095 62.7457C94.7151 62.7457 90.3755 66.4294 88.735 71.1146C88.3738 72.1463 88.2602 73.2758 88.2602 74.432C88.2602 80.9684 93.559 86.2672 100.095 86.2672H106.165C106.853 86.2672 107.527 86.2051 108.183 86.0923L111.757 87.8677C112.645 88.3091 113.668 87.585 113.547 86.6003L113.219 83.9351C116.12 81.7781 118 78.3248 118 74.432C118 68.0055 112.878 62.7753 106.493 62.6013L100.095 62.7457Z" fill="url(#paint0_linear_8007_1868)"/>
<path d="M113.219 83.9347L113.547 86.5999C113.668 87.585 112.645 88.3092 111.757 87.8673L108.183 86.0925C107.526 86.205 106.853 86.2669 106.165 86.2669H103.885L88.7326 71.1138L88.7311 71.1175C90.1333 66.4294 94.7097 62.7456 100.095 62.7456L106.493 62.6011C109.631 62.6866 112.464 63.9934 114.534 66.0628C116.675 68.205 118 71.1637 118 74.4317C118 78.3249 116.12 81.7784 113.219 83.9347Z" fill="url(#paint1_linear_8007_1868)"/>
<path d="M117.192 78.7357H89.0674C90.7891 83.144 95.0774 86.2672 100.095 86.2672H106.165C106.853 86.2672 107.527 86.2051 108.183 86.0923L111.757 87.8677C112.645 88.309 113.668 87.585 113.547 86.6002L113.219 83.935C114.988 82.6195 116.377 80.8212 117.192 78.7357Z" fill="url(#paint2_linear_8007_1868)"/>
<path d="M90.617 50H96.0616C101.925 50 106.679 54.7534 106.679 60.617C106.679 61.2952 106.615 61.9585 106.493 62.6013C105.564 67.5165 101.247 71.1594 96.0616 71.1594H90.6169C89.9994 71.1594 89.3954 71.1782 88.8068 71.077L85.6006 72.6696C84.8035 73.0656 83.8861 72.416 83.9947 71.5327L84.2886 69.1418C81.6864 67.2069 80 64.1091 80 60.617C80 54.7534 84.7534 50 90.617 50Z" fill="url(#paint3_linear_8007_1868)"/>
<path d="M80.6058 64.1569C81.3158 66.1642 82.6116 67.8948 84.2888 69.1419L83.9948 71.5327C83.8862 72.416 84.8037 73.0656 85.6007 72.6697L88.8069 71.077C89.3955 71.1782 89.9996 71.1594 90.617 71.1594H96.0616C100.684 71.1594 104.541 68.2798 105.999 64.1569H80.6058Z" fill="url(#paint4_linear_8007_1868)"/>
<path d="M99.1198 61.612C100.266 61.612 101.195 60.6831 101.195 59.5373C101.195 58.3914 100.266 57.4625 99.1198 57.4625C97.974 57.4625 97.0451 58.3914 97.0451 59.5373C97.0451 60.6831 97.974 61.612 99.1198 61.612Z" fill="url(#paint5_linear_8007_1868)"/>
<path d="M93.3393 61.612C94.4851 61.612 95.414 60.6831 95.414 59.5373C95.414 58.3914 94.4851 57.4625 93.3393 57.4625C92.1934 57.4625 91.2645 58.3914 91.2645 59.5373C91.2645 60.6831 92.1934 61.612 93.3393 61.612Z" fill="url(#paint6_linear_8007_1868)"/>
<path d="M87.5586 61.612C88.7045 61.612 89.6334 60.6831 89.6334 59.5373C89.6334 58.3914 88.7045 57.4625 87.5586 57.4625C86.4128 57.4625 85.4839 58.3914 85.4839 59.5373C85.4839 60.6831 86.4128 61.612 87.5586 61.612Z" fill="url(#paint7_linear_8007_1868)"/>
<path d="M108.911 77.1384C110.057 77.1384 110.985 76.2095 110.985 75.0637C110.985 73.9178 110.057 72.989 108.911 72.989C107.765 72.989 106.836 73.9178 106.836 75.0637C106.836 76.2095 107.765 77.1384 108.911 77.1384Z" fill="url(#paint8_linear_8007_1868)"/>
<path d="M103.13 77.1384C104.276 77.1384 105.205 76.2095 105.205 75.0637C105.205 73.9178 104.276 72.989 103.13 72.989C101.984 72.989 101.055 73.9178 101.055 75.0637C101.055 76.2095 101.984 77.1384 103.13 77.1384Z" fill="url(#paint9_linear_8007_1868)"/>
<path d="M97.3495 77.1384C98.4954 77.1384 99.4243 76.2095 99.4243 75.0637C99.4243 73.9178 98.4954 72.989 97.3495 72.989C96.2037 72.989 95.2748 73.9178 95.2748 75.0637C95.2748 76.2095 96.2037 77.1384 97.3495 77.1384Z" fill="url(#paint10_linear_8007_1868)"/>
<path d="M106.493 62.6015C106.384 62.5985 106.274 62.5968 106.165 62.5968H100.095C94.7109 62.5968 90.1669 66.1929 88.7323 71.1142L88.8069 71.0771C89.3955 71.1783 89.9996 71.234 90.617 71.234H96.0616C101.247 71.2339 105.563 67.5165 106.493 62.6015Z" fill="url(#paint11_linear_8007_1868)"/>
</g>
<defs>
<filter id="filter0_d_8007_1868" x="0" y="0" width="198" height="198" filterUnits="userSpaceOnUse" color-interpolation-filters="sRGB">
<feFlood flood-opacity="0" result="BackgroundImageFix"/>
<feColorMatrix in="SourceAlpha" type="matrix" values="0 0 0 0 0 0 0 0 0 0 0 0 0 0 0 0 0 0 127 0" result="hardAlpha"/>
<feOffset dy="30"/>
<feGaussianBlur stdDeviation="30"/>
<feComposite in2="hardAlpha" operator="out"/>
<feColorMatrix type="matrix" values="0 0 0 0 0.344915 0 0 0 0 0.309028 0 0 0 0 0.432639 0 0 0 0.15 0"/>
<feBlend mode="normal" in2="BackgroundImageFix" result="effect1_dropShadow_8007_1868"/>
<feBlend mode="normal" in="SourceGraphic" in2="effect1_dropShadow_8007_1868" result="shape"/>
</filter>
<linearGradient id="paint0_linear_8007_1868" x1="103.13" y1="66.545" x2="103.13" y2="82.2371" gradientUnits="userSpaceOnUse">
<stop stop-color="#DC4955"/>
<stop offset="1" stop-color="#C4237C"/>
</linearGradient>
<linearGradient id="paint1_linear_8007_1868" x1="110.972" y1="77.9296" x2="96.003" y2="62.9607" gradientUnits="userSpaceOnUse">
<stop stop-color="#8A1958" stop-opacity="0"/>
<stop offset="1" stop-color="#8A1958"/>
</linearGradient>
<linearGradient id="paint2_linear_8007_1868" x1="103.13" y1="80.2794" x2="103.13" y2="86.4572" gradientUnits="userSpaceOnUse">
<stop stop-color="#8A1958" stop-opacity="0"/>
<stop offset="1" stop-color="#8A1958"/>
</linearGradient>
<linearGradient id="paint3_linear_8007_1868" x1="86.7508" y1="51.1165" x2="102.594" y2="76.3315" gradientUnits="userSpaceOnUse">
<stop stop-color="#76CCF8"/>
<stop offset="0.833" stop-color="#518EF8"/>
<stop offset="1" stop-color="#4981F8"/>
</linearGradient>
<linearGradient id="paint4_linear_8007_1868" x1="93.3022" y1="65.1007" x2="93.3022" y2="71.2123" gradientUnits="userSpaceOnUse">
<stop stop-color="#4071F7" stop-opacity="0"/>
<stop offset="1" stop-color="#30569F"/>
</linearGradient>
<linearGradient id="paint5_linear_8007_1868" x1="100.267" y1="58.3905" x2="97.3213" y2="61.3358" gradientUnits="userSpaceOnUse">
<stop stop-color="#EEF4FF"/>
<stop offset="1" stop-color="#CFE7FD"/>
</linearGradient>
<linearGradient id="paint6_linear_8007_1868" x1="94.486" y1="58.3905" x2="91.5407" y2="61.3358" gradientUnits="userSpaceOnUse">
<stop stop-color="#EEF4FF"/>
<stop offset="1" stop-color="#CFE7FD"/>
</linearGradient>
<linearGradient id="paint7_linear_8007_1868" x1="88.7054" y1="58.3905" x2="85.7602" y2="61.3358" gradientUnits="userSpaceOnUse">
<stop stop-color="#EEF4FF"/>
<stop offset="1" stop-color="#CFE7FD"/>
</linearGradient>
<linearGradient id="paint8_linear_8007_1868" x1="110.057" y1="73.917" x2="107.112" y2="76.8622" gradientUnits="userSpaceOnUse">
<stop stop-color="#EEF4FF"/>
<stop offset="1" stop-color="#CFE7FD"/>
</linearGradient>
<linearGradient id="paint9_linear_8007_1868" x1="104.277" y1="73.917" x2="101.332" y2="76.8622" gradientUnits="userSpaceOnUse">
<stop stop-color="#EEF4FF"/>
<stop offset="1" stop-color="#CFE7FD"/>
</linearGradient>
<linearGradient id="paint10_linear_8007_1868" x1="98.4962" y1="73.917" x2="95.551" y2="76.8622" gradientUnits="userSpaceOnUse">
<stop stop-color="#EEF4FF"/>
<stop offset="1" stop-color="#CFE7FD"/>
</linearGradient>
<linearGradient id="paint11_linear_8007_1868" x1="97.6124" y1="64.7033" x2="97.6124" y2="72.4752" gradientUnits="userSpaceOnUse">
<stop stop-color="#9D66D6"/>
<stop offset="1" stop-color="#453D81"/>
</linearGradient>
<clipPath id="clip0_8007_1868">
<rect width="38" height="38" fill="white" transform="translate(80 50)"/>
</clipPath>
</defs>
</svg>
