<svg width="202" height="202" viewBox="0 0 202 202" fill="none" xmlns="http://www.w3.org/2000/svg">
<g filter="url(#filter0_d_8007_1857)">
<circle cx="100.563" cy="70.563" r="40.468" transform="rotate(15 100.563 70.563)" fill="white"/>
</g>
<path d="M94.6229 62.8627C95.5773 54.8814 102.872 49.0358 110.87 49.8386C110.903 49.8419 110.936 49.8455 110.97 49.849L110.971 49.8163L123.843 50.32C124.765 50.356 125.084 51.564 124.299 52.05L120.325 54.5116C123.183 57.5779 124.753 61.8393 124.224 66.4201C123.385 73.6865 117.22 79.3463 109.909 79.57C100.763 79.8499 93.533 71.977 94.6229 62.8627Z" fill="white"/>
<path d="M113.09 80.3697C112.117 89.4699 104.189 96.4037 95.0389 96.2317C94.7586 96.2265 94.4806 96.2144 94.2049 96.1956V96.2349H78.194C77.2713 96.2349 76.9059 95.0403 77.6707 94.5241L82.8035 91.0597C79.4696 87.7522 77.4374 83.139 77.5361 78.0486C77.7159 68.787 85.143 61.0881 94.3934 60.598C105.336 60.018 114.273 69.3073 113.09 80.3697Z" fill="#429DDA"/>
<path d="M89.016 78.4033C89.016 79.5299 88.1027 80.4432 86.9761 80.4432H85.5772C84.4506 80.4432 83.5373 79.5299 83.5373 78.4033C83.5373 77.2766 84.4506 76.3633 85.5772 76.3633H86.9761C88.1026 76.3633 89.016 77.2767 89.016 78.4033ZM97.438 78.4033C97.438 79.5299 96.5247 80.4432 95.3981 80.4432H93.9992C92.8726 80.4432 91.9593 79.5299 91.9593 78.4033C91.9593 77.2766 92.8726 76.3633 93.9992 76.3633H95.3981C96.5247 76.3633 97.438 77.2767 97.438 78.4033ZM105.86 78.4033C105.86 79.5299 104.947 80.4432 103.82 80.4432H102.421C101.295 80.4432 100.381 79.5299 100.381 78.4033C100.381 77.2766 101.295 76.3633 102.421 76.3633H103.82C104.947 76.3633 105.86 77.2767 105.86 78.4033Z" fill="white"/>
<path d="M117.724 59.0941H105.86C105.598 59.0941 105.385 59.3065 105.385 59.569C105.385 59.8315 105.598 60.0439 105.86 60.0439H117.724C117.986 60.0439 118.199 59.8315 118.199 59.569C118.199 59.3065 117.986 59.0941 117.724 59.0941ZM117.724 64.197H110.706C110.444 64.197 110.231 64.4094 110.231 64.6719C110.231 64.9344 110.444 65.1469 110.706 65.1469H117.724C117.986 65.1469 118.199 64.9344 118.199 64.6719C118.199 64.4094 117.986 64.197 117.724 64.197Z" fill="#40437E"/>
<path d="M125.17 50.8948C125.008 50.2822 124.495 49.8704 123.862 49.8459C110.068 49.3146 110.981 49.3201 110.85 49.3598C103.542 48.6582 96.8405 53.3178 94.7318 60.114C94.6106 60.1179 94.4899 60.1168 94.3685 60.1231C84.8487 60.6277 77.2467 68.4972 77.0614 78.039C76.9668 82.9031 78.7399 87.4769 82.066 90.9842L77.4053 94.1301C76.8796 94.4849 76.6601 95.1053 76.8453 95.7115C77.0308 96.3176 77.5602 96.7094 78.194 96.7094C86.2211 96.7044 87.2999 96.7099 95.3703 96.7099C104.622 96.7099 112.579 89.6162 113.562 80.4204C113.597 80.0978 113.621 79.7758 113.639 79.454C119.471 77.7776 123.976 72.7066 124.696 66.475C125.194 62.1604 123.871 57.8718 121.057 54.6164L124.549 52.454C125.088 52.12 125.332 51.5079 125.17 50.8948ZM112.618 80.3192C111.686 89.037 104.143 95.7601 95.3713 95.7601L78.1941 95.7596C77.8778 95.7596 77.777 95.5101 77.7536 95.4337C77.7302 95.3571 77.6743 95.0942 77.9365 94.9176L83.0693 91.453C83.1275 91.4137 83.1762 91.362 83.212 91.3016C83.2478 91.2412 83.2697 91.1737 83.2763 91.1038C83.2828 91.0339 83.2738 90.9634 83.2499 90.8975C83.226 90.8315 83.1878 90.7716 83.138 90.7221C79.7386 87.3499 77.9178 82.8521 78.0111 78.0576C78.1866 69.0111 85.3936 61.5501 94.4186 61.072C99.5201 60.7942 104.459 62.7674 107.964 66.4656C111.468 70.1621 113.164 75.2116 112.618 80.3192ZM124.049 51.6461L120.075 54.1076C120.015 54.1445 119.965 54.1943 119.926 54.2532C119.888 54.3121 119.864 54.3787 119.854 54.4483C119.845 54.5179 119.851 54.5887 119.873 54.6556C119.894 54.7225 119.93 54.7838 119.978 54.8351C122.865 57.9334 124.241 62.1357 123.753 66.3654C123.089 72.1085 118.998 76.7971 113.667 78.4517C113.671 73.7557 111.897 69.2345 108.653 65.8122C105.269 62.2414 100.622 60.2119 95.7286 60.1083C97.8106 53.8699 104.048 49.6367 110.824 50.3114C110.776 50.3097 110.332 50.3035 123.825 50.7946C124.14 50.8071 124.232 51.0598 124.252 51.1373C124.272 51.2143 124.318 51.4796 124.049 51.6461Z" fill="#40437E"/>
<path d="M86.9761 75.8887H85.5772C84.1907 75.8887 83.0624 77.0169 83.0624 78.4035C83.0624 79.7901 84.1906 80.9179 85.5772 80.9179H86.9761C88.3626 80.9179 89.4909 79.79 89.4909 78.4035C89.4909 77.017 88.3626 75.8887 86.9761 75.8887ZM86.9761 79.9682H85.5772C84.7142 79.9682 84.0121 79.2661 84.0121 78.4035C84.0121 77.5405 84.7142 76.8384 85.5772 76.8384H86.9761C87.8391 76.8384 88.5412 77.5404 88.5412 78.4035C88.5412 79.2661 87.8391 79.9682 86.9761 79.9682ZM95.3979 75.8887H93.9993C92.6128 75.8887 91.4845 77.0169 91.4845 78.4035C91.4845 79.7901 92.6127 80.9179 93.9993 80.9179H95.3979C96.7845 80.9179 97.9128 79.79 97.9128 78.4035C97.9128 77.017 96.7845 75.8887 95.3979 75.8887ZM95.3979 79.9682H93.9993C93.1363 79.9682 92.4342 79.2661 92.4342 78.4035C92.4342 77.5405 93.1362 76.8384 93.9993 76.8384H95.3979C96.2609 76.8384 96.9631 77.5404 96.9631 78.4035C96.9631 79.2661 96.2609 79.9682 95.3979 79.9682ZM103.82 75.8887H102.421C101.035 75.8887 99.9063 77.0169 99.9063 78.4035C99.9063 79.7901 101.035 80.9179 102.421 80.9179H103.82C105.207 80.9179 106.335 79.79 106.335 78.4035C106.335 77.017 105.207 75.8887 103.82 75.8887ZM103.82 79.9682H102.421C101.558 79.9682 100.856 79.2661 100.856 78.4035C100.856 77.5405 101.558 76.8384 102.421 76.8384H103.82C104.683 76.8384 105.385 77.5404 105.385 78.4035C105.385 79.2661 104.683 79.9682 103.82 79.9682Z" fill="#40437E"/>
<defs>
<filter id="filter0_d_8007_1857" x="0.0850372" y="0.0849609" width="200.956" height="200.956" filterUnits="userSpaceOnUse" color-interpolation-filters="sRGB">
<feFlood flood-opacity="0" result="BackgroundImageFix"/>
<feColorMatrix in="SourceAlpha" type="matrix" values="0 0 0 0 0 0 0 0 0 0 0 0 0 0 0 0 0 0 127 0" result="hardAlpha"/>
<feOffset dy="30"/>
<feGaussianBlur stdDeviation="30"/>
<feComposite in2="hardAlpha" operator="out"/>
<feColorMatrix type="matrix" values="0 0 0 0 0.344915 0 0 0 0 0.309028 0 0 0 0 0.432639 0 0 0 0.15 0"/>
<feBlend mode="normal" in2="BackgroundImageFix" result="effect1_dropShadow_8007_1857"/>
<feBlend mode="normal" in="SourceGraphic" in2="effect1_dropShadow_8007_1857" result="shape"/>
</filter>
</defs>
</svg>
