<svg width="164" height="164" viewBox="0 0 164 164" fill="none" xmlns="http://www.w3.org/2000/svg">
<g filter="url(#filter0_d_8007_1944)">
<circle cx="82" cy="52" r="22" fill="white"/>
</g>
<g clip-path="url(#clip0_8007_1944)">
<path d="M86.0967 45.7593L76.5893 46.8544C76.404 46.8756 76.225 46.9346 76.0633 47.0275C75.9016 47.1205 75.7606 47.2456 75.649 47.395C75.5373 47.5444 75.4574 47.7151 75.4142 47.8965C75.3709 48.078 75.3652 48.2663 75.3973 48.4501L76.1317 52.6657C76.1827 52.9585 76.3276 53.2267 76.5446 53.4298C76.7615 53.6329 77.0386 53.7599 77.3341 53.7916L78.5264 53.9196L81.1114 56.1235C81.3994 56.3692 81.8295 56.0864 81.7178 55.7242L81.2495 54.2109L84.5329 54.5631C84.8594 54.5982 85.1877 54.5148 85.4577 54.328C85.7278 54.1412 85.9217 53.8635 86.0039 53.5456L87.5785 47.4618C87.6341 47.2467 87.6365 47.0213 87.5855 46.805C87.5345 46.5888 87.4316 46.3882 87.2857 46.2205C87.1399 46.0529 86.9554 45.9234 86.7482 45.843C86.5411 45.7626 86.3175 45.7339 86.0967 45.7593ZM79.0088 50.9724C78.8551 50.9724 78.7049 50.9268 78.5771 50.8414C78.4493 50.756 78.3497 50.6347 78.2909 50.4927C78.2321 50.3507 78.2167 50.1945 78.2467 50.0437C78.2767 49.893 78.3507 49.7545 78.4594 49.6458C78.568 49.5372 78.7065 49.4632 78.8572 49.4332C79.008 49.4032 79.1642 49.4186 79.3062 49.4774C79.4482 49.5362 79.5695 49.6358 79.6549 49.7636C79.7403 49.8914 79.7859 50.0416 79.7859 50.1953C79.7858 50.4014 79.7038 50.5991 79.5581 50.7448C79.4123 50.8905 79.2146 50.9724 79.0085 50.9724H79.0088ZM81.5003 50.9724C81.3467 50.9724 81.1964 50.9268 81.0686 50.8414C80.9408 50.756 80.8412 50.6347 80.7824 50.4927C80.7236 50.3507 80.7082 50.1945 80.7382 50.0437C80.7682 49.893 80.8422 49.7545 80.9509 49.6458C81.0596 49.5372 81.198 49.4632 81.3487 49.4332C81.4995 49.4032 81.6557 49.4186 81.7977 49.4774C81.9397 49.5362 82.0611 49.6358 82.1465 49.7636C82.2318 49.8914 82.2774 50.0416 82.2774 50.1953C82.2773 50.4014 82.1954 50.5991 82.0496 50.7448C81.9038 50.8905 81.7061 50.9724 81.5 50.9724H81.5003ZM83.9919 50.9724C83.8382 50.9724 83.6879 50.9268 83.5602 50.8414C83.4324 50.756 83.3328 50.6347 83.274 50.4927C83.2151 50.3507 83.1997 50.1945 83.2297 50.0437C83.2597 49.893 83.3337 49.7545 83.4424 49.6458C83.5511 49.5372 83.6895 49.4632 83.8403 49.4332C83.991 49.4032 84.1473 49.4186 84.2892 49.4774C84.4312 49.5362 84.5526 49.6358 84.638 49.7636C84.7234 49.8914 84.7689 50.0416 84.7689 50.1953C84.7688 50.4014 84.6869 50.5991 84.5411 50.7448C84.3953 50.8905 84.1976 50.9724 83.9915 50.9724H83.9919Z" fill="#DA0A92"/>
<path d="M81.5 41.8164C83.5033 41.8179 85.4444 42.5117 86.9947 43.7804C88.545 45.0491 89.6092 46.8147 90.0069 48.7781C90.4046 50.7414 90.1115 52.7819 89.1771 54.5539C88.2428 56.326 86.7247 57.7206 84.8799 58.5015C82.7601 59.3852 80.3766 59.3934 78.2507 58.5244C76.1249 57.6553 74.4297 55.9797 73.5361 53.864C72.6424 51.7484 72.623 49.365 73.482 47.235C74.3411 45.1051 76.0087 43.4021 78.1201 42.4985C79.1893 42.046 80.3389 41.814 81.5 41.8164ZM81.5 41C76.2535 41 72 45.2535 72 50.5C72 55.7465 76.2535 60 81.5 60C86.7465 60 91 55.7465 91 50.5C91 45.2535 86.7465 41 81.5 41Z" fill="#DA0A92"/>
</g>
<defs>
<filter id="filter0_d_8007_1944" x="0" y="0" width="164" height="164" filterUnits="userSpaceOnUse" color-interpolation-filters="sRGB">
<feFlood flood-opacity="0" result="BackgroundImageFix"/>
<feColorMatrix in="SourceAlpha" type="matrix" values="0 0 0 0 0 0 0 0 0 0 0 0 0 0 0 0 0 0 127 0" result="hardAlpha"/>
<feOffset dy="30"/>
<feGaussianBlur stdDeviation="30"/>
<feComposite in2="hardAlpha" operator="out"/>
<feColorMatrix type="matrix" values="0 0 0 0 0.344915 0 0 0 0 0.309028 0 0 0 0 0.432639 0 0 0 0.15 0"/>
<feBlend mode="normal" in2="BackgroundImageFix" result="effect1_dropShadow_8007_1944"/>
<feBlend mode="normal" in="SourceGraphic" in2="effect1_dropShadow_8007_1944" result="shape"/>
</filter>
<clipPath id="clip0_8007_1944">
<rect width="19" height="19" fill="white" transform="translate(72 41)"/>
</clipPath>
</defs>
</svg>
