<svg width="179" height="179" viewBox="0 0 179 179" fill="none" xmlns="http://www.w3.org/2000/svg">
<g filter="url(#filter0_d_8007_1909)">
<circle cx="89.5" cy="59.5" r="29.5" fill="white"/>
</g>
<path d="M94.156 71.8613C94.965 71.8613 95.6208 71.2055 95.6208 70.3965C95.6208 69.5875 94.965 68.9316 94.156 68.9316C93.347 68.9316 92.6912 69.5875 92.6912 70.3965C92.6912 71.2055 93.347 71.8613 94.156 71.8613Z" fill="#FFD400"/>
<path d="M79.8005 49.5957C80.448 49.5957 80.9724 50.1201 80.9724 50.7676C80.9724 51.415 80.448 51.9395 79.8005 51.9395C79.1531 51.9395 78.6287 51.415 78.6287 50.7676C78.6287 50.1201 79.1531 49.5957 79.8005 49.5957Z" fill="#FFD400"/>
<path d="M102.652 56.627C102.652 59.8602 101.015 62.7113 98.5247 64.3965L99.7224 67.7598L96.1165 65.5637C93.8033 66.298 91.2243 66.1184 88.9851 64.9637C89.1204 64.4563 89.1925 63.9237 89.1925 63.3734C89.1925 60.2744 86.9037 57.7098 83.9249 57.2773C83.5507 51.7846 87.9065 47.252 93.2771 47.252C98.455 47.252 102.652 51.449 102.652 56.627Z" fill="#07CC66"/>
<path d="M101.48 46.666C101.804 46.666 102.066 46.9285 102.066 47.252C102.066 47.5754 101.804 47.8379 101.48 47.8379C101.157 47.8379 100.894 47.5754 100.894 47.252C100.894 46.9285 101.157 46.666 101.48 46.666Z" fill="#94D4FF"/>
<path d="M99.1365 54.8691C99.4599 54.8691 99.7224 55.1316 99.7224 55.4551C99.7224 55.7785 99.4599 56.041 99.1365 56.041C98.813 56.041 98.5505 55.7785 98.5505 55.4551C98.5505 55.1316 98.813 54.8691 99.1365 54.8691Z" fill="white"/>
<path d="M98.5505 68.9316C98.874 68.9316 99.1365 69.1941 99.1365 69.5176C99.1365 69.841 98.874 70.1035 98.5505 70.1035C98.2271 70.1035 97.9646 69.841 97.9646 69.5176C97.9646 69.1941 98.2271 68.9316 98.5505 68.9316ZM89.7615 70.1035C90.0849 70.1035 90.3474 70.366 90.3474 70.6895C90.3474 71.0129 90.0849 71.2754 89.7615 71.2754C89.438 71.2754 89.1755 71.0129 89.1755 70.6895C89.1755 70.366 89.438 70.1035 89.7615 70.1035ZM84.488 46.666C84.8115 46.666 85.074 46.9285 85.074 47.252C85.074 47.5754 84.8115 47.8379 84.488 47.8379C84.1645 47.8379 83.9021 47.5754 83.9021 47.252C83.9021 46.9285 84.1645 46.666 84.488 46.666ZM79.2146 54.2832C79.538 54.2832 79.8005 54.5457 79.8005 54.8691C79.8005 55.1926 79.538 55.4551 79.2146 55.4551C78.8911 55.4551 78.6287 55.1926 78.6287 54.8691C78.6287 54.5457 78.8911 54.2832 79.2146 54.2832Z" fill="#94D4FF"/>
<path d="M93.863 54.2832H88.5896C88.266 54.2832 88.0037 54.0209 88.0037 53.6973C88.0037 53.3737 88.266 53.1113 88.5896 53.1113H93.863C94.1866 53.1113 94.449 53.3737 94.449 53.6973C94.449 54.0209 94.1866 54.2832 93.863 54.2832ZM97.3787 56.041H88.5896C88.266 56.041 88.0037 55.7787 88.0037 55.4551C88.0037 55.1315 88.266 54.8691 88.5896 54.8691H97.3787C97.7022 54.8691 97.9646 55.1315 97.9646 55.4551C97.9646 55.7787 97.7022 56.041 97.3787 56.041ZM100.308 57.7988H88.5896C88.266 57.7988 88.0037 57.5365 88.0037 57.2129C88.0037 56.8893 88.266 56.627 88.5896 56.627H100.308C100.632 56.627 100.894 56.8893 100.894 57.2129C100.894 57.5365 100.632 57.7988 100.308 57.7988Z" fill="white"/>
<path d="M83.0899 69.476C82.4395 69.476 81.8126 69.3746 81.2237 69.1877L78.6873 70.6309L79.6417 68.4207C78.0052 67.3133 76.9294 65.44 76.9294 63.3148C76.9294 59.9123 79.6874 57.1542 83.09 57.1542C86.4875 57.1542 89.2511 59.9074 89.2511 63.3148C89.2511 66.7115 86.4986 69.476 83.0899 69.476Z" fill="#5CBEFF"/>
<path d="M86.3044 65.3574H79.8591C79.5355 65.3574 79.2732 65.095 79.2732 64.7715C79.2732 64.4479 79.5355 64.1855 79.8591 64.1855H86.3044C86.628 64.1855 86.8904 64.4479 86.8904 64.7715C86.8904 65.095 86.628 65.3574 86.3044 65.3574ZM86.3044 63.5996H79.8591C79.5355 63.5996 79.2732 63.3372 79.2732 63.0137C79.2732 62.6901 79.5355 62.4277 79.8591 62.4277H86.3044C86.628 62.4277 86.8904 62.6901 86.8904 63.0137C86.8904 63.3372 86.628 63.5996 86.3044 63.5996ZM86.3044 61.8418H79.8591C79.5355 61.8418 79.2732 61.5794 79.2732 61.2559C79.2732 60.9323 79.5355 60.6699 79.8591 60.6699H86.3044C86.628 60.6699 86.8904 60.9323 86.8904 61.2559C86.8904 61.5794 86.628 61.8418 86.3044 61.8418Z" fill="white"/>
<defs>
<filter id="filter0_d_8007_1909" x="0" y="0" width="179" height="179" filterUnits="userSpaceOnUse" color-interpolation-filters="sRGB">
<feFlood flood-opacity="0" result="BackgroundImageFix"/>
<feColorMatrix in="SourceAlpha" type="matrix" values="0 0 0 0 0 0 0 0 0 0 0 0 0 0 0 0 0 0 127 0" result="hardAlpha"/>
<feOffset dy="30"/>
<feGaussianBlur stdDeviation="30"/>
<feComposite in2="hardAlpha" operator="out"/>
<feColorMatrix type="matrix" values="0 0 0 0 0.344915 0 0 0 0 0.309028 0 0 0 0 0.432639 0 0 0 0.15 0"/>
<feBlend mode="normal" in2="BackgroundImageFix" result="effect1_dropShadow_8007_1909"/>
<feBlend mode="normal" in="SourceGraphic" in2="effect1_dropShadow_8007_1909" result="shape"/>
</filter>
</defs>
</svg>
