<svg width="198" height="198" viewBox="0 0 198 198" fill="none" xmlns="http://www.w3.org/2000/svg">
<g filter="url(#filter0_d_8007_1923)">
<circle cx="99" cy="69" r="39" fill="white"/>
</g>
<path d="M108.175 89H89.8249C88.0469 89 86.6056 87.5587 86.6056 85.7807V52.2193C86.6056 50.4413 88.0469 49 89.8249 49H108.175C109.953 49 111.394 50.4413 111.394 52.2193V85.7807C111.394 87.5587 109.953 89 108.175 89Z" fill="#3D6D93"/>
<path d="M108.175 49H105.761C107.539 49 108.98 50.4413 108.98 52.2193V85.7807C108.98 87.5587 107.539 89 105.761 89H108.175C109.953 89 111.394 87.5587 111.394 85.7807V52.2193C111.394 50.4413 109.953 49 108.175 49Z" fill="#335E80"/>
<path d="M104.912 52.0584C104.912 52.6593 104.425 53.1464 103.824 53.1464H94.1764C93.5755 53.1464 93.0883 52.6593 93.0883 52.0584C93.0884 51.9738 93.0717 51.8901 93.0394 51.812C93.007 51.7339 92.9596 51.6629 92.8998 51.6031C92.84 51.5433 92.769 51.4959 92.6909 51.4635C92.6128 51.4312 92.5291 51.4145 92.4445 51.4145H90.2274C89.5607 51.4145 89.0201 51.955 89.0201 52.6218V85.3784C89.0201 86.0451 89.5606 86.5856 90.2274 86.5856H107.773C108.439 86.5856 108.98 86.0452 108.98 85.3784V52.6217C108.98 51.955 108.44 51.4145 107.773 51.4145H105.556C105.385 51.4145 105.221 51.4823 105.1 51.6031C104.98 51.7238 104.912 51.8876 104.912 52.0584Z" fill="#F9F7F8"/>
<path d="M99.0001 51.6768C99.3334 51.6768 99.6037 51.4066 99.6037 51.0732C99.6037 50.7398 99.3334 50.4696 99.0001 50.4696C98.6667 50.4696 98.3965 50.7398 98.3965 51.0732C98.3965 51.4066 98.6667 51.6768 99.0001 51.6768Z" fill="#335E80"/>
<path d="M92.8716 65.9009C93.8529 64.7238 94.4255 63.1941 94.3683 61.5289C94.2511 58.1129 91.4528 55.3524 88.0356 55.2791C84.3627 55.2004 81.366 58.1788 81.415 61.8451C81.4626 65.4029 84.4224 68.2353 87.9805 68.2353H93.9031C94.1899 68.2353 94.3336 67.8885 94.1308 67.6857L92.8924 66.4473C92.7438 66.2987 92.7369 66.0624 92.8716 65.9009Z" fill="#F58A97"/>
<path d="M92.8925 66.4474C92.7437 66.2987 92.737 66.0624 92.8716 65.9009C93.853 64.7237 94.4255 63.1941 94.3684 61.5289C94.2512 58.1129 91.4529 55.3524 88.0356 55.2791C87.581 55.2692 87.1265 55.3069 86.6797 55.3915C89.5987 55.9442 91.8491 58.4735 91.9539 61.5289C92.011 63.1941 91.4385 64.7237 90.4572 65.9009C90.3225 66.0624 90.3293 66.2987 90.478 66.4474L91.7165 67.6859C91.9193 67.8887 91.7756 68.2355 91.4888 68.2355H93.9033C94.1901 68.2355 94.3337 67.8887 94.1309 67.6859L92.8925 66.4474Z" fill="#F07281"/>
<path d="M87.8934 62.3601C88.2267 62.3601 88.497 62.0899 88.497 61.7565C88.497 61.4232 88.2267 61.153 87.8934 61.153C87.56 61.153 87.2898 61.4232 87.2898 61.7565C87.2898 62.0899 87.56 62.3601 87.8934 62.3601Z" fill="#FDD1D5"/>
<path d="M90.3078 62.3601C90.6412 62.3601 90.9114 62.0899 90.9114 61.7565C90.9114 61.4232 90.6412 61.153 90.3078 61.153C89.9745 61.153 89.7042 61.4232 89.7042 61.7565C89.7042 62.0899 89.9745 62.3601 90.3078 62.3601Z" fill="#FDD1D5"/>
<path d="M85.479 62.3601C85.8123 62.3601 86.0826 62.0899 86.0826 61.7565C86.0826 61.4232 85.8123 61.153 85.479 61.153C85.1456 61.153 84.8754 61.4232 84.8754 61.7565C84.8754 62.0899 85.1456 62.3601 85.479 62.3601Z" fill="#FDD1D5"/>
<path d="M105.304 68.2354H96.3441C96.184 68.2354 96.0305 68.1718 95.9173 68.0586C95.8041 67.9454 95.7405 67.7919 95.7405 67.6318C95.7405 67.4717 95.8041 67.3182 95.9173 67.205C96.0305 67.0918 96.184 67.0282 96.3441 67.0282H105.304C105.464 67.0282 105.618 67.0918 105.731 67.205C105.844 67.3182 105.908 67.4717 105.908 67.6318C105.908 67.7919 105.844 67.9454 105.731 68.0586C105.618 68.1718 105.464 68.2354 105.304 68.2354ZM105.304 65.8209H96.3441C96.184 65.8209 96.0305 65.7573 95.9173 65.6441C95.8041 65.531 95.7405 65.3774 95.7405 65.2173C95.7405 65.0573 95.8041 64.9037 95.9173 64.7905C96.0305 64.6773 96.184 64.6138 96.3441 64.6138H105.304C105.464 64.6138 105.618 64.6773 105.731 64.7905C105.844 64.9037 105.908 65.0573 105.908 65.2173C105.908 65.3774 105.844 65.531 105.731 65.6441C105.618 65.7573 105.464 65.8209 105.304 65.8209ZM105.304 63.4064H97.5514C97.3913 63.4064 97.2377 63.3428 97.1245 63.2296C97.0114 63.1164 96.9478 62.9629 96.9478 62.8028C96.9478 62.6427 97.0114 62.4892 97.1245 62.376C97.2377 62.2628 97.3913 62.1992 97.5514 62.1992H105.304C105.464 62.1992 105.618 62.2628 105.731 62.376C105.844 62.4892 105.908 62.6427 105.908 62.8028C105.908 62.9629 105.844 63.1164 105.731 63.2296C105.618 63.3428 105.464 63.4064 105.304 63.4064ZM101.682 82.7223H92.7224C92.5623 82.7223 92.4088 82.6588 92.2956 82.5456C92.1824 82.4324 92.1188 82.2788 92.1188 82.1188C92.1188 81.9587 92.1824 81.8051 92.2956 81.6919C92.4088 81.5787 92.5623 81.5152 92.7224 81.5152H101.682C101.842 81.5152 101.996 81.5787 102.109 81.6919C102.222 81.8051 102.286 81.9587 102.286 82.1188C102.286 82.2788 102.222 82.4324 102.109 82.5456C101.996 82.6588 101.842 82.7223 101.682 82.7223ZM101.682 80.3078H92.7224C92.5623 80.3078 92.4088 80.2442 92.2956 80.131C92.1824 80.0178 92.1188 79.8643 92.1188 79.7042C92.1188 79.5441 92.1824 79.3906 92.2956 79.2774C92.4088 79.1642 92.5623 79.1006 92.7224 79.1006H101.682C101.842 79.1006 101.996 79.1642 102.109 79.2774C102.222 79.3906 102.286 79.5441 102.286 79.7042C102.286 79.8643 102.222 80.0178 102.109 80.131C101.996 80.2442 101.842 80.3078 101.682 80.3078ZM100.475 77.8934H92.7224C92.5623 77.8934 92.4088 77.8298 92.2956 77.7166C92.1824 77.6034 92.1188 77.4498 92.1188 77.2898C92.1188 77.1297 92.1824 76.9762 92.2956 76.863C92.4088 76.7498 92.5623 76.6862 92.7224 76.6862H100.475C100.635 76.6862 100.789 76.7498 100.902 76.863C101.015 76.9762 101.079 77.1297 101.079 77.2898C101.079 77.4498 101.015 77.6034 100.902 77.7166C100.789 77.8298 100.635 77.8934 100.475 77.8934Z" fill="#DEDAEE"/>
<path d="M105.128 80.3878C104.147 79.2107 103.575 77.6811 103.632 76.0159C103.749 72.5999 106.547 69.8394 109.964 69.7661C113.637 69.6874 116.634 72.6659 116.585 76.3321C116.537 79.8899 113.578 82.7223 110.02 82.7223H104.097C103.81 82.7223 103.666 82.3755 103.869 82.1727L105.108 80.9342C105.256 80.7856 105.263 80.5494 105.128 80.3878Z" fill="#AEE69C"/>
<path d="M109.964 69.7661C109.609 69.7742 109.255 69.8118 108.906 69.8785C111.932 70.452 114.213 73.1295 114.17 76.3321C114.123 79.8899 111.163 82.7223 107.605 82.7223H110.019C113.578 82.7223 116.537 79.8899 116.585 76.3321C116.634 72.6659 113.637 69.6874 109.964 69.7661Z" fill="#89DAA4"/>
<path d="M110.107 76.847C110.44 76.847 110.71 76.5768 110.71 76.2434C110.71 75.9101 110.44 75.6398 110.107 75.6398C109.773 75.6398 109.503 75.9101 109.503 76.2434C109.503 76.5768 109.773 76.847 110.107 76.847Z" fill="#D5EFC8"/>
<path d="M107.692 76.847C108.026 76.847 108.296 76.5768 108.296 76.2434C108.296 75.9101 108.026 75.6398 107.692 75.6398C107.359 75.6398 107.089 75.9101 107.089 76.2434C107.089 76.5768 107.359 76.847 107.692 76.847Z" fill="#D5EFC8"/>
<path d="M112.521 76.847C112.854 76.847 113.125 76.5768 113.125 76.2434C113.125 75.9101 112.854 75.6398 112.521 75.6398C112.188 75.6398 111.917 75.9101 111.917 76.2434C111.917 76.5768 112.188 76.847 112.521 76.847Z" fill="#D5EFC8"/>
<defs>
<filter id="filter0_d_8007_1923" x="0" y="0" width="198" height="198" filterUnits="userSpaceOnUse" color-interpolation-filters="sRGB">
<feFlood flood-opacity="0" result="BackgroundImageFix"/>
<feColorMatrix in="SourceAlpha" type="matrix" values="0 0 0 0 0 0 0 0 0 0 0 0 0 0 0 0 0 0 127 0" result="hardAlpha"/>
<feOffset dy="30"/>
<feGaussianBlur stdDeviation="30"/>
<feComposite in2="hardAlpha" operator="out"/>
<feColorMatrix type="matrix" values="0 0 0 0 0.344915 0 0 0 0 0.309028 0 0 0 0 0.432639 0 0 0 0.15 0"/>
<feBlend mode="normal" in2="BackgroundImageFix" result="effect1_dropShadow_8007_1923"/>
<feBlend mode="normal" in="SourceGraphic" in2="effect1_dropShadow_8007_1923" result="shape"/>
</filter>
</defs>
</svg>
