<svg width="164" height="164" viewBox="0 0 164 164" fill="none" xmlns="http://www.w3.org/2000/svg">
<path d="M80.0953 89.311V74.3713L89.4326 81.3432L80.0953 89.311Z" fill="#FFC400" stroke="#FFC400" stroke-width="1.59303"/>
<path d="M81.8845 17.965C80.9134 17.965 80.0071 17.795 79.1655 17.4552C78.3401 17.0991 77.636 16.6055 77.0534 15.9743C76.4707 15.3431 76.058 14.5905 75.8153 13.7165L78.6071 13.0367C78.8661 13.7812 79.2788 14.3558 79.8452 14.7604C80.4117 15.165 81.0995 15.3673 81.9088 15.3673C82.4914 15.3673 83.0093 15.254 83.4625 15.0275C83.9157 14.8009 84.2717 14.4934 84.5307 14.1049C84.8058 13.7165 84.9434 13.2714 84.9434 12.7697C84.9434 12.1547 84.7168 11.6449 84.2637 11.2402C83.8267 10.8194 83.1307 10.5038 82.1758 10.2934L81.2776 10.0992C79.562 9.72698 78.2915 9.11196 77.4661 8.25418C76.6569 7.39639 76.2523 6.35248 76.2523 5.12244C76.2523 4.37795 76.3979 3.69819 76.6892 3.08318C76.9806 2.45198 77.3852 1.90979 77.9031 1.45662C78.421 0.987264 79.0279 0.631202 79.7239 0.388431C80.4198 0.129477 81.1724 0 81.9816 0C82.9041 0 83.7538 0.169939 84.5307 0.509816C85.3076 0.849694 85.9711 1.33523 86.5214 1.96644C87.0717 2.58145 87.4601 3.31785 87.6867 4.17564L84.9191 4.8554C84.6602 4.12709 84.2717 3.56872 83.7538 3.18028C83.2359 2.79185 82.6209 2.59764 81.9088 2.59764C81.3909 2.59764 80.9296 2.70284 80.525 2.91324C80.1366 3.10745 79.821 3.38259 79.5782 3.73866C79.3516 4.07853 79.2383 4.46697 79.2383 4.90395C79.2383 5.53515 79.473 6.03688 79.9424 6.40912C80.4117 6.78137 81.1319 7.08079 82.103 7.30737L83.0013 7.50159C86.3029 8.24608 87.9538 9.9212 87.9538 12.5269C87.9538 13.32 87.8 14.0564 87.4925 14.7361C87.2012 15.3997 86.7804 15.9743 86.2301 16.4598C85.6798 16.9292 85.0324 17.3014 84.2879 17.5765C83.5596 17.8355 82.7585 17.965 81.8845 17.965Z" fill="#FFC400"/>
<path d="M102.315 19.1206L108.911 3.19599L118.555 7.19087L117.58 9.54591L110.627 6.66589L108.899 10.8377L115.179 13.439L114.204 15.794L107.923 13.1927L105.982 17.8804L113.159 20.8533L112.184 23.2084L102.315 19.1206Z" fill="#FFC400"/>
<path d="M124.769 31.6834L136.957 19.4952L144.338 26.8768L142.536 28.6792L137.214 23.3576L134.021 26.5506L138.828 31.3572L137.025 33.1597L132.219 28.3531L128.631 31.9409L134.124 37.4341L132.322 39.2366L124.769 31.6834Z" fill="#FFC400"/>
<path d="M146.203 74.6622H163.44V77.624H156.448V86.0481H163.44V89.0099H146.203V86.0481H153.802V77.624H146.203V74.6622Z" fill="#FFC400"/>
<path d="M142.073 107.23C142.457 106.303 142.954 105.484 143.564 104.773C144.167 104.077 144.855 103.495 145.627 103.026C146.408 102.579 147.242 102.258 148.128 102.065C149.014 101.871 149.939 101.816 150.902 101.9C151.86 101.999 152.825 102.25 153.797 102.652C154.769 103.055 155.628 103.56 156.375 104.167C157.116 104.789 157.731 105.482 158.221 106.246C158.725 107.015 159.092 107.842 159.322 108.725C159.552 109.609 159.634 110.51 159.569 111.429C159.497 112.363 159.269 113.293 158.885 114.22C158.501 115.147 158.008 115.959 157.404 116.655C156.794 117.366 156.099 117.945 155.318 118.392C154.546 118.86 153.717 119.191 152.831 119.385C151.945 119.579 151.023 119.626 150.065 119.527C149.108 119.428 148.143 119.178 147.171 118.775C146.199 118.372 145.343 117.86 144.602 117.238C143.855 116.631 143.229 115.942 142.725 115.173C142.235 114.409 141.875 113.586 141.646 112.702C141.41 111.834 141.327 110.933 141.399 109.999C141.464 109.08 141.689 108.157 142.073 107.23ZM144.585 108.27C144.269 109.033 144.123 109.787 144.147 110.533C144.18 111.3 144.362 112.023 144.693 112.703C145.025 113.384 145.497 114 146.109 114.551C146.73 115.124 147.467 115.587 148.319 115.94C149.171 116.293 150.012 116.483 150.841 116.511C151.679 116.561 152.456 116.462 153.171 116.215C153.887 115.969 154.52 115.582 155.07 115.057C155.629 114.553 156.067 113.92 156.383 113.157C156.699 112.395 156.84 111.63 156.807 110.863C156.783 110.117 156.606 109.404 156.274 108.724C155.943 108.044 155.467 107.417 154.846 106.845C154.233 106.293 153.501 105.841 152.649 105.488C151.796 105.135 150.951 104.934 150.113 104.884C149.284 104.856 148.512 104.965 147.796 105.212C147.081 105.459 146.444 105.834 145.884 106.339C145.334 106.864 144.901 107.508 144.585 108.27Z" fill="#FFC400"/>
<path d="M132.017 149.125L123.434 133.332L125.562 131.204L137.39 137.916L130.678 126.088L132.824 123.942L148.617 132.525L146.385 134.757L134.472 127.856L141.304 139.838L139.278 141.864L127.279 135.049L134.197 146.945L132.017 149.125Z" fill="#FFC400"/>
<path d="M83.4403 146.082V163.319H80.4785V146.082H83.4403Z" fill="#FFC400"/>
<path d="M58.1755 143.139L52.592 156.619L57.2348 158.542L56.2221 160.987L44.2002 156.007L45.2128 153.563L49.8556 155.486L55.4392 142.006L58.1755 143.139Z" fill="#FFC400"/>
<path d="M0.646369 102.338L18.522 100.452L19.674 103.233L8.94656 111.592L22.4425 109.917L23.6038 112.721L9.63019 124.027L8.42243 121.111L19.3571 112.745L5.67248 114.472L4.57621 111.825L15.4645 103.348L1.82625 105.186L0.646369 102.338Z" fill="#FFC400"/>
<path d="M18.2077 81.8362C18.2077 82.8397 18.0621 83.7865 17.7708 84.6766C17.4794 85.5506 17.0667 86.3518 16.5326 87.0801C15.9823 87.7922 15.335 88.4072 14.5905 88.9251C13.846 89.443 13.0125 89.8476 12.0899 90.139C11.1674 90.4141 10.1802 90.5517 9.12815 90.5517C8.07614 90.5517 7.08888 90.4141 6.16635 90.139C5.24383 89.8476 4.41032 89.443 3.66582 88.9251C2.90515 88.4072 2.24967 87.7841 1.69939 87.0558C1.14911 86.3275 0.72831 85.5263 0.436986 84.6524C0.145662 83.7622 0 82.8154 0 81.812C0 80.8085 0.145662 79.8698 0.436986 78.9958C0.72831 78.1057 1.14911 77.3045 1.69939 76.5924C2.23348 75.8641 2.87278 75.241 3.61727 74.7231C4.36176 74.2052 5.19528 73.8086 6.1178 73.5335C7.04033 73.2584 8.02759 73.1208 9.07959 73.1208C10.1316 73.1208 11.1189 73.2665 12.0414 73.5578C12.9639 73.8329 13.8055 74.2295 14.5662 74.7474C15.3107 75.2653 15.9581 75.8884 16.5084 76.6167C17.0586 77.3288 17.4794 78.13 17.7708 79.0201C18.0621 79.8941 18.2077 80.8328 18.2077 81.8362ZM15.4887 81.8362C15.4887 81.0108 15.335 80.2582 15.0275 79.5785C14.7038 78.8825 14.2587 78.2837 13.6922 77.782C13.1258 77.2803 12.4541 76.8918 11.6772 76.6167C10.8842 76.3254 10.0264 76.1797 9.10387 76.1797C8.18134 76.1797 7.33165 76.3254 6.55479 76.6167C5.76174 76.8918 5.08198 77.2803 4.51552 77.782C3.94906 78.2837 3.51207 78.8825 3.20456 79.5785C2.88087 80.2582 2.71902 81.0108 2.71902 81.8362C2.71902 82.6617 2.88087 83.4223 3.20456 84.1183C3.51207 84.798 3.94906 85.3888 4.51552 85.8905C5.08198 86.3922 5.76174 86.7887 6.55479 87.0801C7.33165 87.3552 8.18134 87.4928 9.10387 87.4928C10.0264 87.4928 10.8842 87.3552 11.6772 87.0801C12.4541 86.7887 13.1258 86.3922 13.6922 85.8905C14.2587 85.3888 14.7038 84.798 15.0275 84.1183C15.335 83.4223 15.4887 82.6617 15.4887 81.8362Z" fill="#FFC400"/>
<path d="M19.1847 61.6346L3.26006 55.0384L5.24821 50.2386C5.77466 48.9676 6.42866 47.9597 7.21019 47.2148C7.99792 46.455 8.86779 45.9832 9.81981 45.7994C10.7718 45.6156 11.7637 45.7374 12.7954 46.1648C13.4384 46.4311 13.9944 46.8016 14.4636 47.2762C14.9239 47.7296 15.2886 48.2661 15.5575 48.8855C15.8327 49.49 15.9884 50.1501 16.0248 50.8659L24.0621 49.8594L22.8079 52.8873L15.7484 53.5631C15.6953 53.7338 15.6328 53.9269 15.561 54.1424C15.4805 54.3368 15.3969 54.5387 15.3102 54.748C15.0934 55.2714 14.7903 55.8553 14.4007 56.4997L20.2995 58.9431L19.1847 61.6346ZM6.75239 53.3317L12.0232 55.515C12.2131 55.2257 12.3911 54.9228 12.5573 54.6062C12.7147 54.2685 12.8615 53.9352 12.9978 53.6062C13.4561 52.4997 13.573 51.5409 13.3484 50.7296C13.1239 49.9183 12.5855 49.3362 11.7332 48.9832C10.8809 48.6301 10.0916 48.6536 9.36536 49.0535C8.63912 49.4534 8.05304 50.1916 7.6071 51.2682L6.75239 53.3317Z" fill="#FFC400"/>
<path d="M31.1987 39.6422L19.0106 27.4541L21.1049 25.3598L26.5466 30.8015L26.1003 20.3643L28.6066 17.858L29.0014 28.8961L41.4127 29.4282L38.6318 32.2092L27.3363 31.5912L33.293 37.5479L31.1987 39.6422Z" fill="#FFC400"/>
<path d="M56.8754 21.4773C55.9782 21.8489 55.0758 22.0388 54.1682 22.0468C53.2694 22.0337 52.43 21.8471 51.6502 21.4869C50.8703 21.1267 50.2011 20.5894 49.6423 19.8748L51.9615 18.1784C52.4857 18.7671 53.0868 19.14 53.765 19.2971C54.4432 19.4541 55.1561 19.3778 55.9037 19.0681C56.442 18.8451 56.8772 18.5423 57.2091 18.1595C57.5411 17.7768 57.7524 17.3564 57.843 16.8984C57.9485 16.4343 57.9053 15.9704 57.7133 15.5069C57.4779 14.9387 57.0735 14.5544 56.5 14.354C55.9352 14.1325 55.1715 14.1072 54.2088 14.2782L53.3046 14.4426C51.5771 14.7552 50.168 14.6732 49.0771 14.1965C48.0012 13.7137 47.2279 12.9041 46.7572 11.7677C46.4723 11.0799 46.3468 10.3961 46.3806 9.71646C46.4082 9.02182 46.5745 8.36606 46.8796 7.74919C47.1784 7.11737 47.6029 6.55615 48.153 6.06554C48.6968 5.55997 49.3426 5.15234 50.0902 4.84266C50.9425 4.48963 51.7926 4.32147 52.6403 4.33818C53.4881 4.3549 54.287 4.54954 55.037 4.92211C55.7807 5.27973 56.4214 5.81143 56.959 6.51721L54.6622 8.20433C54.1442 7.63056 53.5717 7.26333 52.9446 7.10267C52.3174 6.942 51.6749 6.99792 51.017 7.27044C50.5385 7.46864 50.1526 7.74235 49.8593 8.09157C49.5748 8.41965 49.3885 8.79462 49.3005 9.21648C49.2212 9.6172 49.2652 10.0194 49.4324 10.4231C49.6739 11.0063 50.0828 11.38 50.6588 11.5443C51.2349 11.7086 52.0149 11.7096 52.9988 11.5473L53.903 11.383C57.2382 10.8074 59.4044 11.7232 60.4016 14.1306C60.7051 14.8633 60.8448 15.6025 60.8209 16.3482C60.8057 17.0727 60.6368 17.7646 60.3142 18.4237C59.9854 19.0679 59.5297 19.6596 58.9472 20.1987C58.3734 20.7166 57.6828 21.1428 56.8754 21.4773Z" fill="#FFC400"/>
<circle cx="109.807" cy="151.638" r="3.73492" fill="#FFC400"/>
<circle cx="29.1324" cy="136.698" r="3.73492" fill="#FFC400"/>
<circle cx="148.65" cy="50.0478" r="3.73492" fill="#FFC400"/>
</svg>
