<svg width="1820" height="1326" viewBox="0 0 1920 1426" fill="none" xmlns="http://www.w3.org/2000/svg">
<path d="M1474.83 1106.88C1474.83 1341.7 1228.85 1533.07 924 1533.07C619.152 1533.07 373.167 1341.7 373.167 1106.88C373.167 872.059 619.152 680.691 924 680.691C1228.85 680.691 1474.83 872.059 1474.83 1106.88Z" stroke="black" stroke-opacity="0.06" stroke-width="4"/>
<path d="M1554.83 1106.88C1554.83 1376.15 1273.03 1595.45 924 1595.45C574.972 1595.45 293.167 1376.15 293.167 1106.88C293.167 837.609 574.972 618.316 924 618.316C1273.03 618.316 1554.83 837.609 1554.83 1106.88Z" stroke="black" stroke-opacity="0.06" stroke-width="4"/>
<path d="M1626.83 1106.88C1626.83 1406.84 1312.79 1651.02 924 1651.02C535.206 1651.02 221.167 1406.84 221.167 1106.88C221.167 806.919 535.206 562.745 924 562.745C1312.79 562.745 1626.83 806.919 1626.83 1106.88Z" stroke="black" stroke-opacity="0.06" stroke-width="4"/>
<path d="M1708.17 1106.88C1708.17 1441.92 1357.71 1714.53 924 1714.53C490.289 1714.53 139.833 1441.92 139.833 1106.88C139.833 771.842 490.289 499.236 924 499.236C1357.71 499.236 1708.17 771.842 1708.17 1106.88Z" stroke="black" stroke-opacity="0.06" stroke-width="4"/>
<path d="M1792.17 1106.88C1792.17 1477.62 1404.11 1779.17 924 1779.17C443.895 1779.17 55.8335 1477.62 55.8335 1106.88C55.8335 736.141 443.895 434.592 924 434.592C1404.11 434.592 1792.17 736.141 1792.17 1106.88Z" stroke="black" stroke-opacity="0.06" stroke-width="4"/>
<path d="M1882.83 1106.88C1882.83 1516.45 1454.18 1849.48 924 1849.48C393.821 1849.48 -34.833 1516.45 -34.833 1106.88C-34.833 697.308 393.821 364.278 924 364.278C1454.18 364.278 1882.83 697.308 1882.83 1106.88Z" stroke="black" stroke-opacity="0.06" stroke-width="4"/>
<path d="M1989.5 1106.88C1989.5 1562.18 1513.09 1932.27 924 1932.27C334.911 1932.27 -141.5 1562.18 -141.5 1106.88C-141.5 651.584 334.911 281.488 924 281.488C1513.09 281.488 1989.5 651.584 1989.5 1106.88Z" stroke="black" stroke-opacity="0.06" stroke-width="4"/>
<path d="M2092.17 1106.88C2092.17 1606.02 1569.79 2011.66 924 2011.66C278.209 2011.66 -244.166 1606.02 -244.166 1106.88C-244.166 607.741 278.209 202.102 924 202.102C1569.79 202.102 2092.17 607.741 2092.17 1106.88Z" stroke="black" stroke-opacity="0.06" stroke-width="4"/>
<path d="M2198.83 1106.88C2198.83 1651.75 1628.7 2094.45 924 2094.45C219.299 2094.45 -350.833 1651.75 -350.833 1106.88C-350.833 562.017 219.299 119.312 924 119.312C1628.7 119.312 2198.83 562.017 2198.83 1106.88Z" stroke="black" stroke-opacity="0.06" stroke-width="4"/>
<path d="M2306.83 1106.88C2306.83 1698.1 1688.35 2178.37 924 2178.37C159.653 2178.37 -458.833 1698.1 -458.833 1106.88C-458.833 515.667 159.653 35.3889 924 35.3889C1688.35 35.3889 2306.83 515.667 2306.83 1106.88Z" stroke="black" stroke-opacity="0.06" stroke-width="4"/>
<path d="M2425.5 1106.88C2425.5 1748.83 1753.89 2270.24 924 2270.24C94.1147 2270.24 -577.5 1748.83 -577.5 1106.88C-577.5 464.933 94.1147 -56.4732 924 -56.4732C1753.89 -56.4732 2425.5 464.933 2425.5 1106.88Z" stroke="black" stroke-opacity="0.06" stroke-width="4"/>
<path d="M2558.83 1106.88C2558.83 1805.83 1827.52 2373.44 924 2373.44C20.4769 2373.44 -710.833 1805.83 -710.833 1106.88C-710.833 407.936 20.4769 -159.676 924 -159.676C1827.52 -159.676 2558.83 407.936 2558.83 1106.88Z" stroke="black" stroke-opacity="0.06" stroke-width="4"/>
</svg>
