<svg width="31" height="32" viewBox="0 0 31 32" fill="none" xmlns="http://www.w3.org/2000/svg">
<path d="M21.6388 4.5874C23.3519 4.5874 24.9997 5.26443 26.212 6.47926C27.4255 7.69153 28.1039 9.32663 28.1039 11.0384V21.13C28.1039 24.694 25.2041 27.5809 21.6388 27.5809H9.01921C5.45393 27.5809 2.55547 24.694 2.55547 21.13V11.0384C2.55547 7.47437 5.44116 4.5874 9.01921 4.5874H21.6388ZM23.0836 11.23C22.8153 11.2159 22.5599 11.3066 22.367 11.4855L16.6071 16.0842C15.8662 16.6986 14.8046 16.6986 14.0522 16.0842L8.30385 11.4855C7.90658 11.1917 7.35729 11.23 7.02643 11.5749C6.68153 11.9198 6.64321 12.4691 6.93574 12.8523L7.10308 13.0184L12.9153 17.5532C13.6307 18.1153 14.4981 18.4219 15.4063 18.4219C16.312 18.4219 17.1947 18.1153 17.9088 17.5532L23.6712 12.9417L23.7734 12.8395C24.0787 12.4691 24.0787 11.9326 23.7593 11.5621C23.5818 11.3718 23.3378 11.2555 23.0836 11.23Z" fill="#FFC400"/>
</svg>
