<svg width="64" height="64" viewBox="0 0 64 64" fill="none" xmlns="http://www.w3.org/2000/svg">
<path d="M29.8601 7.08586C30.5337 5.01291 33.4663 5.01292 34.1399 7.08587L38.567 20.7113C38.8683 21.6383 39.7322 22.266 40.7069 22.266H55.0335C57.2131 22.266 58.1194 25.0551 56.356 26.3363L44.7656 34.7572C43.977 35.3302 43.647 36.3457 43.9482 37.2728L48.3754 50.8982C49.0489 52.9711 46.6763 54.6949 44.913 53.4137L33.3225 44.9928C32.5339 44.4198 31.4661 44.4198 30.6775 44.9928L19.087 53.4137C17.3237 54.6949 14.9511 52.9711 15.6246 50.8982L20.0518 37.2728C20.353 36.3457 20.023 35.3302 19.2344 34.7572L7.64399 26.3363C5.88063 25.0551 6.78688 22.266 8.96651 22.266H23.2931C24.2678 22.266 25.1317 21.6383 25.433 20.7113L29.8601 7.08586Z" fill="#3A3A3A"/>
</svg>
